<?xml version="1.0" ?><svg height="32" id="svg17515" version="1.1" viewBox="0 0 32 32.000001" width="32" xmlns="http://www.w3.org/2000/svg" xmlns:cc="http://creativecommons.org/ns#" xmlns:dc="http://purl.org/dc/elements/1.1/" xmlns:inkscape="http://www.inkscape.org/namespaces/inkscape" xmlns:rdf="http://www.w3.org/1999/02/22-rdf-syntax-ns#" xmlns:sodipodi="http://sodipodi.sourceforge.net/DTD/sodipodi-0.dtd" xmlns:svg="http://www.w3.org/2000/svg"><defs id="defs17517"><clipPath clipPathUnits="userSpaceOnUse" id="clipPath32617-9-8-8-9"><circle cx="-64.623535" cy="50.047192" id="path32619-2-3-5-1" r="38.553814" style="fill:#4bb7c0;fill-opacity:1;stroke:none" transform="matrix(9.3443438,0,0,9.3443438,-627.91229,-5859.5225)"/></clipPath><clipPath clipPathUnits="userSpaceOnUse" id="clipPath19550"><circle cx="-64.623535" cy="50.047192" id="circle19552" r="38.553814" style="fill:#4bb7c0;fill-opacity:1;stroke:none" transform="matrix(9.3443438,0,0,9.3443438,-627.91229,-5859.5225)"/></clipPath></defs><g id="layer1" transform="translate(0,-1020.3622)"><g id="g41861" style="display:inline" transform="translate(609.06076,157.69571)"><g id="g38852"><path d="m -592.82227,-154.08789 c -1.2847,0 -2.26018,1.16771 -2.04882,2.45312 l 1.27929,7.78516 c 0.25684,-0.0868 0.52692,-0.14453 0.8125,-0.14453 0.28533,0 0.55404,0.0578 0.81055,0.14453 l 1.2793,-7.78516 c 0.21136,-1.28541 -0.76413,-2.45312 -2.04883,-2.45312 z m 10.30469,8.40625 c -0.29624,-0.0314 -0.60536,0.003 -0.9082,0.11133 l -7.11719,2.55078 -0.006,0.004 -0.002,-0.002 -0.17969,0.0645 c 0.32921,0.43952 0.53125,0.98203 0.53125,1.57617 0,0.0302 -0.009,0.0579 -0.01,0.0879 l 7.50976,-0.10352 c 1.28468,-0.0123 2.2507,-1.19125 2.02734,-2.47461 l -0.0137,-0.082 c -0.16744,-0.96248 -0.94331,-1.63832 -1.83203,-1.73242 z m -12.82226,4.51758 -7.30664,2.77344 c -1.20312,0.45695 -1.71506,1.89902 -1.07227,3.02734 l 0.043,0.0723 c 0.64269,1.12834 2.12893,1.40008 3.12109,0.57227 l 5.98047,-4.78125 c -0.43643,-0.42866 -0.71282,-1.01376 -0.76562,-1.66406 z m 4.18359,1.80468 c -0.41939,0.34767 -0.94298,0.5646 -1.52148,0.5879 l 1.41992,7.73242 c 0.2352,1.28118 1.54658,2.0393 2.7539,1.59375 l 0,0.002 0.0781,-0.0293 c 1.20728,-0.44544 1.72986,-1.88316 1.09766,-3.01757 z" id="path38718" style="color:#000000;font-style:normal;font-variant:normal;font-weight:normal;font-stretch:normal;font-size:medium;line-height:normal;font-family:sans-serif;text-indent:0;text-align:start;text-decoration:none;text-decoration-line:none;text-decoration-style:solid;text-decoration-color:#000000;letter-spacing:normal;word-spacing:normal;text-transform:none;direction:ltr;writing-mode:lr-tb;baseline-shift:baseline;text-anchor:start;white-space:normal;clip-rule:nonzero;display:inline;overflow:visible;visibility:visible;opacity:1;isolation:auto;mix-blend-mode:normal;color-interpolation:sRGB;color-interpolation-filters:linearRGB;solid-color:#000000;solid-opacity:1;fill:#e1e1e6;fill-opacity:1;fill-rule:nonzero;stroke:none;stroke-width:0.08;stroke-linecap:round;stroke-linejoin:round;stroke-miterlimit:4;stroke-dasharray:none;stroke-dashoffset:0;stroke-opacity:1;color-rendering:auto;image-rendering:auto;shape-rendering:auto;text-rendering:auto;enable-background:accumulate" transform="translate(0,1020.3622)"/><path d="m -585.99609,-151.98047 c -0.73352,-0.0302 -1.46679,0.33379 -1.875,1.03516 l -3.9668,6.8164 -0.004,-0.002 -0.0488,0.30469 c 0.43837,0.16406 0.81614,0.44561 1.10546,0.80664 l 0.20508,-0.0742 5.91406,-5.125 c 0.97663,-0.84667 0.96883,-2.37955 -0.0156,-3.2168 l -0.0644,-0.0527 c -0.36917,-0.31399 -0.8099,-0.47409 -1.25,-0.49219 z m -13.53516,0.15235 c -0.4401,0.0181 -0.88085,0.17818 -1.25,0.49218 l -0.0625,0.0547 c -0.98423,0.83727 -0.99211,2.37017 -0.0156,3.2168 l 5.96876,5.1875 c 0.2993,-0.43194 0.72411,-0.76338 1.2207,-0.94922 l -0.0254,-0.16211 -3.96094,-6.80469 c -0.40825,-0.70132 -1.1415,-1.06536 -1.875,-1.03515 z m -4.07227,6.02343 c -0.88789,0.0939 -1.66397,0.76876 -1.83203,1.73047 l 0,0.002 -0.0137,0.082 c -0.22324,1.28329 0.74276,2.46035 2.02734,2.47265 l 8.06446,0.10156 c 0.008,-0.51451 0.16131,-0.99272 0.42187,-1.39453 l -0.24218,-0.21093 -7.51954,-2.67188 c -0.30271,-0.10833 -0.61028,-0.14263 -0.90625,-0.11133 z m 13.36914,4.78711 c -0.0788,0.57481 -0.33189,1.09405 -0.71679,1.48633 l 5.95508,4.97266 c 0.99221,0.82788 2.47846,0.55425 3.12109,-0.57422 l 0.041,-0.0723 c 0.64264,-1.12835 0.13083,-2.5685 -1.07227,-3.02539 z m -4.12695,1.69336 -3.8164,6.84766 c -0.63218,1.1345 -0.1078,2.57032 1.09961,3.01562 l 0.0762,0.0273 0,0.002 c 1.2073,0.44536 2.51877,-0.31459 2.7539,-1.5957 l 1.41993,-7.73828 c -0.58009,-0.0112 -1.1072,-0.22063 -1.53321,-0.5586 z" id="path38716" style="color:#000000;font-style:normal;font-variant:normal;font-weight:normal;font-stretch:normal;font-size:medium;line-height:normal;font-family:sans-serif;text-indent:0;text-align:start;text-decoration:none;text-decoration-line:none;text-decoration-style:solid;text-decoration-color:#000000;letter-spacing:normal;word-spacing:normal;text-transform:none;direction:ltr;writing-mode:lr-tb;baseline-shift:baseline;text-anchor:start;white-space:normal;clip-rule:nonzero;display:inline;overflow:visible;visibility:visible;opacity:1;isolation:auto;mix-blend-mode:normal;color-interpolation:sRGB;color-interpolation-filters:linearRGB;solid-color:#000000;solid-opacity:1;fill:#e6f3eb;fill-opacity:1;fill-rule:nonzero;stroke:none;stroke-width:0.08;stroke-linecap:round;stroke-linejoin:round;stroke-miterlimit:4;stroke-dasharray:none;stroke-dashoffset:0;stroke-opacity:1;color-rendering:auto;image-rendering:auto;shape-rendering:auto;text-rendering:auto;enable-background:accumulate" transform="translate(0,1020.3622)"/><path d="m -592.7793,875.78993 c -0.31737,0 -0.61738,0.0639 -0.90625,0.15235 l 0.0937,0.57031 c 0.25684,-0.0868 0.52692,-0.14453 0.8125,-0.14453 0.28533,0 0.55404,0.0578 0.81055,0.14453 l 0.0937,-0.57227 c -0.28805,-0.088 -0.58779,-0.15039 -0.9043,-0.15039 z" id="path41836" style="color:#000000;font-style:normal;font-variant:normal;font-weight:normal;font-stretch:normal;font-size:medium;line-height:normal;font-family:sans-serif;text-indent:0;text-align:start;text-decoration:none;text-decoration-line:none;text-decoration-style:solid;text-decoration-color:#000000;letter-spacing:normal;word-spacing:normal;text-transform:none;direction:ltr;writing-mode:lr-tb;baseline-shift:baseline;text-anchor:start;white-space:normal;clip-rule:nonzero;display:inline;overflow:visible;visibility:visible;opacity:1;isolation:auto;mix-blend-mode:normal;color-interpolation:sRGB;color-interpolation-filters:linearRGB;solid-color:#000000;solid-opacity:1;fill:#d9d9de;fill-opacity:1;fill-rule:nonzero;stroke:none;stroke-width:0.08;stroke-linecap:round;stroke-linejoin:round;stroke-miterlimit:4;stroke-dasharray:none;stroke-dashoffset:0;stroke-opacity:1;color-rendering:auto;image-rendering:auto;shape-rendering:auto;text-rendering:auto;enable-background:accumulate"/><path d="m -590.16406,877.20595 -0.37891,0.13672 -0.006,0.004 -0.002,-0.002 -0.17969,0.0645 c 0.32921,0.43952 0.53125,0.98203 0.53125,1.57617 0,0.0302 -0.009,0.0579 -0.01,0.0879 l 0.57031,-0.008 c 6.7e-4,-0.0272 0.008,-0.0527 0.008,-0.0801 0,-0.65868 -0.19693,-1.2709 -0.5332,-1.7793 z" id="path41834" style="color:#000000;font-style:normal;font-variant:normal;font-weight:normal;font-stretch:normal;font-size:medium;line-height:normal;font-family:sans-serif;text-indent:0;text-align:start;text-decoration:none;text-decoration-line:none;text-decoration-style:solid;text-decoration-color:#000000;letter-spacing:normal;word-spacing:normal;text-transform:none;direction:ltr;writing-mode:lr-tb;baseline-shift:baseline;text-anchor:start;white-space:normal;clip-rule:nonzero;display:inline;overflow:visible;visibility:visible;opacity:1;isolation:auto;mix-blend-mode:normal;color-interpolation:sRGB;color-interpolation-filters:linearRGB;solid-color:#000000;solid-opacity:1;fill:#d9d9de;fill-opacity:1;fill-rule:nonzero;stroke:none;stroke-width:0.08;stroke-linecap:round;stroke-linejoin:round;stroke-miterlimit:4;stroke-dasharray:none;stroke-dashoffset:0;stroke-opacity:1;color-rendering:auto;image-rendering:auto;shape-rendering:auto;text-rendering:auto;enable-background:accumulate"/><path d="m -595.33984,879.19814 -0.54688,0.20703 c 0.0918,0.7021 0.39579,1.33525 0.86133,1.81641 l 0.45117,-0.35938 c -0.43643,-0.42866 -0.71282,-1.01376 -0.76562,-1.66406 z" id="path41832" style="color:#000000;font-style:normal;font-variant:normal;font-weight:normal;font-stretch:normal;font-size:medium;line-height:normal;font-family:sans-serif;text-indent:0;text-align:start;text-decoration:none;text-decoration-line:none;text-decoration-style:solid;text-decoration-color:#000000;letter-spacing:normal;word-spacing:normal;text-transform:none;direction:ltr;writing-mode:lr-tb;baseline-shift:baseline;text-anchor:start;white-space:normal;clip-rule:nonzero;display:inline;overflow:visible;visibility:visible;opacity:1;isolation:auto;mix-blend-mode:normal;color-interpolation:sRGB;color-interpolation-filters:linearRGB;solid-color:#000000;solid-opacity:1;fill:#d9d9de;fill-opacity:1;fill-rule:nonzero;stroke:none;stroke-width:0.08;stroke-linecap:round;stroke-linejoin:round;stroke-miterlimit:4;stroke-dasharray:none;stroke-dashoffset:0;stroke-opacity:1;color-rendering:auto;image-rendering:auto;shape-rendering:auto;text-rendering:auto;enable-background:accumulate"/><path d="m -591.15625,881.00282 c -0.41939,0.34767 -0.94298,0.5646 -1.52148,0.5879 l 0.10351,0.56836 c 0.63924,-0.0425 1.22281,-0.27448 1.70117,-0.64649 z" id="path41818" style="color:#000000;font-style:normal;font-variant:normal;font-weight:normal;font-stretch:normal;font-size:medium;line-height:normal;font-family:sans-serif;text-indent:0;text-align:start;text-decoration:none;text-decoration-line:none;text-decoration-style:solid;text-decoration-color:#000000;letter-spacing:normal;word-spacing:normal;text-transform:none;direction:ltr;writing-mode:lr-tb;baseline-shift:baseline;text-anchor:start;white-space:normal;clip-rule:nonzero;display:inline;overflow:visible;visibility:visible;opacity:1;isolation:auto;mix-blend-mode:normal;color-interpolation:sRGB;color-interpolation-filters:linearRGB;solid-color:#000000;solid-opacity:1;fill:#d9d9de;fill-opacity:1;fill-rule:nonzero;stroke:none;stroke-width:0.08;stroke-linecap:round;stroke-linejoin:round;stroke-miterlimit:4;stroke-dasharray:none;stroke-dashoffset:0;stroke-opacity:1;color-rendering:auto;image-rendering:auto;shape-rendering:auto;text-rendering:auto;enable-background:accumulate"/><path d="m -591.69922,875.99501 -0.13867,0.23828 -0.004,-0.002 -0.0488,0.30469 c 0.43836,0.16406 0.81614,0.44561 1.10546,0.80664 l 0.20508,-0.0742 0.27539,-0.23828 c -0.35856,-0.46685 -0.83665,-0.82772 -1.39453,-1.03516 z" id="path41846" style="color:#000000;font-style:normal;font-variant:normal;font-weight:normal;font-stretch:normal;font-size:medium;line-height:normal;font-family:sans-serif;text-indent:0;text-align:start;text-decoration:none;text-decoration-line:none;text-decoration-style:solid;text-decoration-color:#000000;letter-spacing:normal;word-spacing:normal;text-transform:none;direction:ltr;writing-mode:lr-tb;baseline-shift:baseline;text-anchor:start;white-space:normal;clip-rule:nonzero;display:inline;overflow:visible;visibility:visible;opacity:1;isolation:auto;mix-blend-mode:normal;color-interpolation:sRGB;color-interpolation-filters:linearRGB;solid-color:#000000;solid-opacity:1;fill:#deebe3;fill-opacity:1;fill-rule:nonzero;stroke:none;stroke-width:0.08;stroke-linecap:round;stroke-linejoin:round;stroke-miterlimit:4;stroke-dasharray:none;stroke-dashoffset:0;stroke-opacity:1;color-rendering:auto;image-rendering:auto;shape-rendering:auto;text-rendering:auto;enable-background:accumulate"/><path d="m -593.90625,876.01064 c -0.57198,0.22294 -1.05911,0.60698 -1.41406,1.10156 l 0.42969,0.37305 c 0.2993,-0.43194 0.72411,-0.76338 1.2207,-0.94922 l -0.0254,-0.16211 z" id="path41844" style="color:#000000;font-style:normal;font-variant:normal;font-weight:normal;font-stretch:normal;font-size:medium;line-height:normal;font-family:sans-serif;text-indent:0;text-align:start;text-decoration:none;text-decoration-line:none;text-decoration-style:solid;text-decoration-color:#000000;letter-spacing:normal;word-spacing:normal;text-transform:none;direction:ltr;writing-mode:lr-tb;baseline-shift:baseline;text-anchor:start;white-space:normal;clip-rule:nonzero;display:inline;overflow:visible;visibility:visible;opacity:1;isolation:auto;mix-blend-mode:normal;color-interpolation:sRGB;color-interpolation-filters:linearRGB;solid-color:#000000;solid-opacity:1;fill:#deebe3;fill-opacity:1;fill-rule:nonzero;stroke:none;stroke-width:0.08;stroke-linecap:round;stroke-linejoin:round;stroke-miterlimit:4;stroke-dasharray:none;stroke-dashoffset:0;stroke-opacity:1;color-rendering:auto;image-rendering:auto;shape-rendering:auto;text-rendering:auto;enable-background:accumulate"/><path d="m -595.41992,877.25478 c -0.31046,0.48664 -0.49686,1.06281 -0.50586,1.68359 l 0.56836,0.008 c 0.008,-0.51451 0.16131,-0.99272 0.42187,-1.39453 l -0.24218,-0.21093 z" id="path41842" style="color:#000000;font-style:normal;font-variant:normal;font-weight:normal;font-stretch:normal;font-size:medium;line-height:normal;font-family:sans-serif;text-indent:0;text-align:start;text-decoration:none;text-decoration-line:none;text-decoration-style:solid;text-decoration-color:#000000;letter-spacing:normal;word-spacing:normal;text-transform:none;direction:ltr;writing-mode:lr-tb;baseline-shift:baseline;text-anchor:start;white-space:normal;clip-rule:nonzero;display:inline;overflow:visible;visibility:visible;opacity:1;isolation:auto;mix-blend-mode:normal;color-interpolation:sRGB;color-interpolation-filters:linearRGB;solid-color:#000000;solid-opacity:1;fill:#deebe3;fill-opacity:1;fill-rule:nonzero;stroke:none;stroke-width:0.08;stroke-linecap:round;stroke-linejoin:round;stroke-miterlimit:4;stroke-dasharray:none;stroke-dashoffset:0;stroke-opacity:1;color-rendering:auto;image-rendering:auto;shape-rendering:auto;text-rendering:auto;enable-background:accumulate"/><path d="m -590.23438,879.34462 c -0.0788,0.57481 -0.33189,1.09405 -0.71679,1.48633 l 0.4375,0.36523 c 0.42124,-0.44467 0.71437,-1.01138 0.82617,-1.64453 z" id="path41840" style="color:#000000;font-style:normal;font-variant:normal;font-weight:normal;font-stretch:normal;font-size:medium;line-height:normal;font-family:sans-serif;text-indent:0;text-align:start;text-decoration:none;text-decoration-line:none;text-decoration-style:solid;text-decoration-color:#000000;letter-spacing:normal;word-spacing:normal;text-transform:none;direction:ltr;writing-mode:lr-tb;baseline-shift:baseline;text-anchor:start;white-space:normal;clip-rule:nonzero;display:inline;overflow:visible;visibility:visible;opacity:1;isolation:auto;mix-blend-mode:normal;color-interpolation:sRGB;color-interpolation-filters:linearRGB;solid-color:#000000;solid-opacity:1;fill:#deebe3;fill-opacity:1;fill-rule:nonzero;stroke:none;stroke-width:0.08;stroke-linecap:round;stroke-linejoin:round;stroke-miterlimit:4;stroke-dasharray:none;stroke-dashoffset:0;stroke-opacity:1;color-rendering:auto;image-rendering:auto;shape-rendering:auto;text-rendering:auto;enable-background:accumulate"/><path d="m -594.36133,881.03798 -0.2832,0.50977 c 0.48425,0.36309 1.07201,0.58559 1.71289,0.61718 l 0.10352,-0.56835 c -0.5801,-0.0112 -1.1072,-0.22063 -1.53321,-0.5586 z" id="path41820" style="color:#000000;font-style:normal;font-variant:normal;font-weight:normal;font-stretch:normal;font-size:medium;line-height:normal;font-family:sans-serif;text-indent:0;text-align:start;text-decoration:none;text-decoration-line:none;text-decoration-style:solid;text-decoration-color:#000000;letter-spacing:normal;word-spacing:normal;text-transform:none;direction:ltr;writing-mode:lr-tb;baseline-shift:baseline;text-anchor:start;white-space:normal;clip-rule:nonzero;display:inline;overflow:visible;visibility:visible;opacity:1;isolation:auto;mix-blend-mode:normal;color-interpolation:sRGB;color-interpolation-filters:linearRGB;solid-color:#000000;solid-opacity:1;fill:#deebe3;fill-opacity:1;fill-rule:nonzero;stroke:none;stroke-width:0.08;stroke-linecap:round;stroke-linejoin:round;stroke-miterlimit:4;stroke-dasharray:none;stroke-dashoffset:0;stroke-opacity:1;color-rendering:auto;image-rendering:auto;shape-rendering:auto;text-rendering:auto;enable-background:accumulate"/><path d="m -592.77929,876.3377 c 1.44214,0 2.60887,1.18489 2.60887,2.64759 0,1.46269 -1.16673,2.6476 -2.60887,2.6476 -1.44214,10e-6 -2.6109,-1.18491 -2.6109,-2.6476 0,-1.4627 1.16876,-2.6476 2.6109,-2.64759 z" id="path38708" style="color:#000000;font-style:normal;font-variant:normal;font-weight:normal;font-stretch:normal;font-size:medium;line-height:normal;font-family:sans-serif;text-indent:0;text-align:start;text-decoration:none;text-decoration-line:none;text-decoration-style:solid;text-decoration-color:#000000;letter-spacing:normal;word-spacing:normal;text-transform:none;direction:ltr;writing-mode:lr-tb;baseline-shift:baseline;text-anchor:start;white-space:normal;clip-rule:nonzero;display:inline;overflow:visible;visibility:visible;opacity:1;isolation:auto;mix-blend-mode:normal;color-interpolation:sRGB;color-interpolation-filters:linearRGB;solid-color:#000000;solid-opacity:1;fill:#ffd158;fill-opacity:1;fill-rule:nonzero;stroke:none;stroke-width:0.08;stroke-linecap:round;stroke-linejoin:round;stroke-miterlimit:4;stroke-dasharray:none;stroke-dashoffset:0;stroke-opacity:1;color-rendering:auto;image-rendering:auto;shape-rendering:auto;text-rendering:auto;enable-background:accumulate"/></g></g></g></svg>