<svg xmlns="http://www.w3.org/2000/svg" viewBox="0 0 128 128">
    <title>Hibiscus-Flower</title>
    <g id="Hibiscus-Flower">
        <g id="Hibiscus-Flower-2">
            <path d="M21.61,2c5.2,7.17,10.52,23.77,8.86,32.73C26.12,26.5,21,11.52,21.61,2Z" fill="#70b494"
                  fill-rule="evenodd"/>
            <path d="M33.07,2.84c2.92,8.35,3.21,25.77-1,33.87C30.32,27.59,29.76,11.79,33.07,2.84Z" fill="#70b494"
                  fill-rule="evenodd"/>
            <path d="M56.24,44.3h0a54.34,54.34,0,0,1,6.82-13.63,0,0,0,0,0,0,0h0C63.58,41.15,58,61.1,50.55,69A108.24,108.24,0,0,1,56.24,44.3Z"
                  fill="#70b494" fill-rule="evenodd"/>
            <path d="M50.64,40.11h0c1.69-6.35,3.93-12.33,6.69-16.59a.12.12,0,0,1,0,0h0C58.57,34.34,54.2,55.36,47,64A111.88,111.88,0,0,1,50.64,40.11Z"
                  fill="#70b494" fill-rule="evenodd"/>
            <path d="M45.52,37.43h0c1.6-6.57,3.85-12.91,6.69-17.28a.07.07,0,0,0,0,0h0c1.15,10-2.9,29.5-9.58,37.49A102.74,102.74,0,0,1,45.52,37.43Z"
                  fill="#70b494" fill-rule="evenodd"/>
            <path d="M35.14,34.4h0c1-9.49,3.44-20.61,7.53-27.25h0c1.58,9.65-1.64,28.56-8,36.45A81.64,81.64,0,0,1,35.14,34.4Z"
                  fill="#70b494" fill-rule="evenodd"/>
            <path d="M39.85,35.41h0c1.59-8.37,4.24-17.11,7.85-22.67v0h0c1.15,10-2.9,29.49-9.58,37.49A97.16,97.16,0,0,1,39.85,35.41Z"
                  fill="#70b494" fill-rule="evenodd"/>
            <path d="M67.93,44.4l-.06.26-.08.34c0,.1,0,.2-.07.29l-.08.31-.09.33-.07.28-.1.37-.07.24-.11.41-.06.2-.13.45L67,48c0,.17-.1.34-.15.51l0,.08C64,58,59,68.21,53.59,73A106.53,106.53,0,0,1,63.4,44.69l0,0,.22-.42,0,0c.23-.43.47-.86.71-1.28l0,0,.21-.37.06-.11L64.9,42l.06-.1c.22-.37.45-.74.68-1.1l.07-.11.2-.31.09-.14.2-.3.07-.11.67-1,.09-.13.2-.27.1-.14.2-.27.08-.11.46-.6,0,0,.21-.26.1-.12.2-.25.1-.12.21-.25.05-.06.23-.27h0a35.15,35.15,0,0,1-.44,4.29v0c0,.18-.06.36-.09.53a.61.61,0,0,0,0,.08l-.09.5,0,.11-.09.47,0,.14-.09.45,0,.17-.09.42,0,.2-.09.39L68,44Z"
                  fill="#70b494" fill-rule="evenodd"/>
            <path d="M75.07,39.63C74.25,50.48,66,70.31,57.28,77.44,59.75,66.27,66.91,48.14,75.07,39.63Z" fill="#70b494"
                  fill-rule="evenodd"/>
            <path d="M60,80.82c4.26-10.29,14.27-26.44,23.7-33.21C81.09,57.86,69.71,75.46,60,80.82Z" fill="#70b494"
                  fill-rule="evenodd"/>
            <path d="M58.7,77.28c-11.38,1.8-31,1.8-42-2.63,10.48-3.2,32.09-2.81,42,2.63Z" fill="#75bd9b"
                  fill-rule="evenodd"/>
            <path d="M32.11,36.71C23.79,31.34,11.25,20.1,6.82,11,15.38,15,29,27.58,32.11,36.71Z" fill="#75bd9b"
                  fill-rule="evenodd"/>
            <path d="M35.1,43.16C25.87,39.54,11.33,31,5.17,23c9.18,2.18,25,11.88,29.93,20.21Z" fill="#75bd9b"
                  fill-rule="evenodd"/>
            <path d="M53.86,71.55c-11.44,1.43-31,.8-41.86-4,10.57-2.87,32.17-1.78,41.86,4Z" fill="#75bd9b"
                  fill-rule="evenodd"/>
            <path d="M50.81,66.57c-11.51.7-31-1.18-41.52-6.64,10.74-2.18,32.22.28,41.52,6.64Z" fill="#75bd9b"
                  fill-rule="evenodd"/>
            <path d="M38.64,49.59C28,47.34,10.66,40.73,2.5,33.12c10.34.71,29.29,8.34,36.14,16.47Z" fill="#75bd9b"
                  fill-rule="evenodd"/>
            <path d="M43.14,57.54C32.43,55.51,15,49.25,6.67,41.82c10.35.49,29.45,7.74,36.47,15.73Z" fill="#75bd9b"
                  fill-rule="evenodd"/>
            <path d="M46.55,62.37C35.44,61.8,16.92,57.89,7.47,51.52,18,50.59,38.33,55.27,46.55,62.37Z" fill="#75bd9b"
                  fill-rule="evenodd"/>
            <path d="M66.52,84.16C49.76,69.09,34.74,42.91,29,30.41c4.09,14.64,22.09,42.91,35.31,54.64,1.52,1.35,2.88.76,2.19-.89Z"
                  fill="#6aab8c" fill-rule="evenodd"/>
            <path d="M66.52,84.16C49.76,69.09,34.74,42.91,29,30.41c5.09,14.3,23.47,41,35.58,53.08.72.72,2.18,1.71,1.76,2.2.43-.1.71-1,.16-1.52Z"
                  fill="#629e82" fill-rule="evenodd"/>
            <path d="M94.59,47.95c-.44-1.07-2.14-1.4-3.12-1.61-1.15-.25-2.31-.35-3.47-.54-2.06-.34-4.38-.69-6.35.27a4.62,4.62,0,0,0-2.19,2.74,33,33,0,0,0-1.41,4.63c1.49.35,3.49,0,4.76.26a7.87,7.87,0,0,1,3.88,2.19,12.45,12.45,0,0,1,2-2.92,14.22,14.22,0,0,1,2.93-2.27c.78-.49,1.66-.81,2.42-1.33A1.18,1.18,0,0,0,94.59,47.95Z"
                  fill="#23867e"/>
            <path d="M120.74,72.72c-1.39-2.28-1.86-5-2.84-7.41a11.78,11.78,0,0,0-3.63-5,3.6,3.6,0,0,0-3-.81A9.06,9.06,0,0,0,108.38,61a21,21,0,0,0-4.67,4.34c-.87,1.08-2.43,3-4,2.25s-.82-3.19-.29-4.45a7.94,7.94,0,0,1,1.3-2.22,7.53,7.53,0,0,1,2.64-1.83A25.36,25.36,0,0,1,106.9,58c.61-.17,1.22-.39,1.84-.52a15.54,15.54,0,0,1,1.72-.13c.55,0,1.39-.23,1.47-.91a2.12,2.12,0,0,0-.64-1.42,18,18,0,0,0-3-2.65A36.65,36.65,0,0,0,104,49.2c-1.51-.86-3.4-1.65-5.14-1.06-2.08.7-2.84,3.07-3.84,4.81-.63,1.1-1.28,2.18-1.86,3.3a20,20,0,0,0-1.32,3.27c-.63,2-1.29,4.45-3.16,5.62a2.94,2.94,0,0,1-2.61.37c-.69-.33-.84-1.18-.91-1.87h0a18.43,18.43,0,0,1-4.31,2.58c-.49.22-1,.43-1.5.63l-.61.23-.91.34-.86.3-.67.23-1.25.41-.16.05A95,95,0,0,1,119.33,77a100.26,100.26,0,0,0-51.61-3.47h0a4,4,0,0,0,.34.25l.11.07.28.16.14.07.3.14.14.06.46.17a23.67,23.67,0,0,0,3,.78l1.18.19h0l2,.27.3,0,.16,0,1.29.19a15.58,15.58,0,0,1,1.81.33,18.08,18.08,0,0,1,4,1.3A7.24,7.24,0,0,1,87.13,82h0c.53-.59,1.29-.84,1.88-.18a5.52,5.52,0,0,1,.82,1.51c.26.61.49,1.23.71,1.86a20.89,20.89,0,0,0,3.18,6.66,11.73,11.73,0,0,0,4.5,3.68,7,7,0,0,0,6.22-.78c.95-.55,1.75-1.33,2.69-1.88.59-.34,1.52-.67,1.84-1.32s-.82-1.25-1.24-1.51c-.85-.53-1.64-1.14-2.44-1.74a24.19,24.19,0,0,1-4.46-4.3c-.67-.84-2.14-2.73-1.06-3.79.64-.64,1.81.05,2.4.41a21.47,21.47,0,0,1,3.18,2.49c.77.69,1.5,1.43,2.28,2.12a9,9,0,0,0,5,2.3,4.76,4.76,0,0,0,3.72-1.42,11.81,11.81,0,0,0,1.46-2,20.49,20.49,0,0,1,1.49-1.83,18.45,18.45,0,0,0,1.14-1.9,7.2,7.2,0,0,1,1.4-1.49c.93-.8,2.38-1.8,3.64-1.18A15.52,15.52,0,0,1,120.74,72.72Z"
                  fill="#23867e"/>
            <path d="M79.28,88.53C78.13,89.76,80,92,80.46,93a11.44,11.44,0,0,1,.79,2.59h0a14,14,0,0,0,5.94,2.68,16.51,16.51,0,0,0,3.38.33,8.67,8.67,0,0,0,3.17-.4c1.53-.64,0-2.21-.66-2.9A34.59,34.59,0,0,1,88.41,90a15.17,15.17,0,0,1-1.94-3.93h0A5.48,5.48,0,0,1,83.3,88C82.4,88.2,79.95,87.81,79.28,88.53Z"
                  fill="#23867e"/>
            <path d="M69.81,70.17c-.47.19-.93.38-1.39.58-1.86.84-1.7,1.91-.7,2.73A100.26,100.26,0,0,1,119.33,77,95,95,0,0,0,74.93,68.4l.16-.05c-1.68.54-3.37,1.08-5,1.72Z"
                  fill="#1c6e67"/>
            <path d="M47.8,108.54c-1.53-1.48-1.91-5-4.07-5.8a2.6,2.6,0,0,0-1.68,0l.41-.1a14.46,14.46,0,0,1,2.29,5.63c.41,1.94.31,3.95.69,5.89.09.44.22,1.06.64,1.31s1.17-.22,1.54-.55a15.14,15.14,0,0,0,3.64-4.88h0A5.2,5.2,0,0,1,47.8,108.54Z"
                  fill="#23867e"/>
            <path d="M23.74,76.64l-.16.4A24.51,24.51,0,0,0,19.9,75.6a3.78,3.78,0,0,0-2.94.17c-1.73.89-2.83,2.66-3.78,4.3-.61,1-1.3,2-1.83,3.11C11,84,10.09,85.68,11,86.4a1.3,1.3,0,0,0,1.3.06c.64-.23,1.24-.57,1.89-.79a12.22,12.22,0,0,1,5.45-.78h0a14.44,14.44,0,0,1,1.76-4.16A22,22,0,0,0,23.74,76.64Z"
                  fill="#23867e"/>
            <path d="M33.24,105.53c-5.81-3.29,3.84-13.88,6.3-16.57a41.91,41.91,0,0,0,4.25-5.42l.1-.16,0,0,.1-.16,0,0,.11-.2v0l.13-.24a94.36,94.36,0,0,0-28.13,38A89.48,89.48,0,0,1,37.64,83.57l-.8.51-.25.16-1.14.69-.31.18-.83.48-.47.26-.71.39-.47.25-.17.09a22.45,22.45,0,0,1-3.42,1.77c-.43.22-.86.43-1.29.64h0a1.54,1.54,0,0,1,0,2.29,3.78,3.78,0,0,1-3.31,1c-2.31-.28-4.31-1.61-6.56-2.13-1.31-.3-2.63-.5-4-.73a26.47,26.47,0,0,0-3.41-.62A3.78,3.78,0,0,0,7,90.67c-1.48,2.49-1.24,5.67-1.34,8.45A9.86,9.86,0,0,0,6,103c.16.41.46.8.94.73.89-.12,1.43-1.15,2-1.69a16.79,16.79,0,0,1,1.49-1c.58-.41,1.15-.82,1.74-1.21a8.86,8.86,0,0,1,3.41-1.47,6.51,6.51,0,0,1,2.85.26,7.18,7.18,0,0,1,2.37,1.07,1.75,1.75,0,0,1,.79,1.92,2,2,0,0,1-1.54,1.26c-1.66.45-3.47.1-5.17.31a21.09,21.09,0,0,0-3.63.83A6.75,6.75,0,0,0,8.9,105c-1.61,1.35-1.17,4-.64,5.77.68,2.3,2.11,4.17,3.31,6.21a14.81,14.81,0,0,1,2,6.92,10.7,10.7,0,0,1-.1,2.05c.4-1.63,2.73-2,4.1-2,1.1-.07,2.14.35,3.24.31a12.08,12.08,0,0,1,1.58,0c.58.05,1.14.18,1.72.19a4.6,4.6,0,0,0,4.19-2.18,8.78,8.78,0,0,0,1.15-4.63c-.06-2.31-.41-4.66,0-7,.13-.67.44-1.87,1.35-1.69,1.46.3,1.75,2.61,1.93,3.79a22.62,22.62,0,0,1,.3,2.81c0,1.31-.09,2.62-.15,3.94a8.53,8.53,0,0,0-.15,2.39c.2.83,1.4.27,1.9.07,1-.38,2-.53,3-.84a8.85,8.85,0,0,0,3.17-1.73,6.54,6.54,0,0,0,1.94-5.11,14,14,0,0,0-.82-4.69,40.43,40.43,0,0,0-2.83-5.22l0,0a14.89,14.89,0,0,1-1.49,1A4.26,4.26,0,0,1,33.24,105.53Z"
                  fill="#23867e"/>
            <path d="M23,71.58a4.26,4.26,0,0,0-1.53,1.77c.58.6,1.84.16,2.62.19A4.16,4.16,0,0,0,23,71.58Z"
                  fill="#23867e"/>
            <path d="M16.16,120.72a94.36,94.36,0,0,1,28.13-38l-.13.24c.46-.83,1-2.07.62-2.69-.9-1.53-3.62.87-4.46,1.49l-1.12.79-.26.18-.88.59-.31.2-.11.07A89.48,89.48,0,0,0,16.16,120.72Z"
                  fill="#1c6e67"/>
            <path d="M86.7,55.88a7.87,7.87,0,0,0-3.88-2.19c-2-.49-6,.84-6.62-2a2.75,2.75,0,0,1-.05-.36s0-.09,0-.13,0-.15,0-.23,0-.1,0-.15,0-.15,0-.22,0-.1,0-.15,0-.2.06-.3l0-.09.09-.32,0-.12.08-.26,0-.13,0-.06,0-.12a8.13,8.13,0,0,0,.54-2.08s0-.05,0-.08,0-.18,0-.27,0-.1,0-.15,0-.12,0-.19,0-.13,0-.2l0-.12a2.78,2.78,0,0,0-.11-.29,2.67,2.67,0,0,0-.12-.25l0-.07a3.06,3.06,0,0,0-.64-.74l-.06,0a2.82,2.82,0,0,0-.36-.24l-.06,0a3.52,3.52,0,0,0-1.88-.37h0a5.75,5.75,0,0,0-1.51.31h0l-.45.17-.06,0-.11.05a7.59,7.59,0,0,0-2,1.37Q68.46,47,67.45,48.24l0,0-.22.28-.71.9-.08.1-.74,1h0a102.94,102.94,0,0,0-5.92,9.56l-.29.51-.21.35c-.16.28-.34.57-.54.86h0A4.52,4.52,0,0,1,57,63.59l-.1,0h0l-.14,0H56.6l-.05,0-.06,0-.05,0-.07-.08,0-.07,0-.07,0-.07a1.33,1.33,0,0,1,0-.16v0a4,4,0,0,1,0-.9v0c0-.21.06-.44.11-.68A22.7,22.7,0,0,1,57,58.83l.09-.31,0-.09v0c.17-.55.35-1.09.52-1.6l.08-.23c.22-.62.42-1.17.58-1.6h0c.15-.39.27-.68.33-.81l.08-.17L59,53.5c.38-.81.77-1.61,1.14-2.42a21.76,21.76,0,0,0,1.62-4.74l0-.11c0-.23.08-.46.11-.68s0-.24,0-.37,0-.31,0-.46v-.06c0-.25,0-.51,0-.76v-.06a9,9,0,0,0-.44-2.47,6,6,0,0,0-1.18-2.13l-.08-.09L60.07,39l-.3-.27-.14-.11a4.91,4.91,0,0,0-.41-.28l-.06,0a5.82,5.82,0,0,0-2.94-.78h-.17l-.42,0-.24,0-.43.06-.35.06-.22.05-.47.12-.65.22a10.14,10.14,0,0,0-5.74,6.27l0,.14q-.08.25-.15.5c0,.14-.08.28-.11.43-.29,1.21-.58,2.93-1.7,3.53h0l-.18.08-.12,0-.14,0-.07,0h-.1l-.09,0h-.2c-1.52,0-2.67-1.45-3.93-2.2l0,0-.1-.05-.19-.1-.06,0-.25-.1a6.64,6.64,0,0,0-2.64-.4,4.44,4.44,0,0,0-2.48,1l-.23.2,0,0a5.2,5.2,0,0,0-.83,1.13A7.17,7.17,0,0,0,33,50.52a4.88,4.88,0,0,0,.25,2.8l0,.09q.08.19.18.37l.1.18.11.19a42.71,42.71,0,0,0,3.84,4.42l.91,1,.86,1,0,0,.35.4,1.44,1.66h0l.2.23.56.66.13.15a34.62,34.62,0,0,1,2.11,2.75h0l0,0c.36.53,2.13,2.92,1.47,3.71l-.09.09,0,0a.76.76,0,0,1-.23.1h0l-.14,0a3.32,3.32,0,0,1-1.51-.28h0A8.3,8.3,0,0,1,42,69.42l-.23-.15,0,0-.16-.11L41,68.77l-.11-.08-.63-.42c-1.75-1.18-3.49-2.36-5.35-3.37l-.07,0-.64-.33-.43-.22a17.63,17.63,0,0,0-4.5-1.47h0l-.19,0-.84-.12h-.14a11.57,11.57,0,0,0-6.27,1l-.2.12-.11.07a3.52,3.52,0,0,0-1.64,2.91q0,.18,0,.36s0,.08,0,.13,0,.14,0,.21,0,.16,0,.24l0,.13a4,4,0,0,0,.57,1.27l.16.22.12.16.18.21.11.12.27.27,0,0c.28.27.57.53.85.79l.07.07.23.22.09.09a4.22,4.22,0,0,1,1.37,2.55c0,.06,0,.13,0,.19s0,.11,0,.17,0,.06,0,.09,0,.16,0,.24,0,.11,0,.16,0,.21,0,.31l0,.14c0,.09,0,.17,0,.25l0,.22,0,.16c0,.11-.05.21-.08.31l0,.07q-.06.19-.13.38v0a22,22,0,0,1-2.3,4.1,14.44,14.44,0,0,0-1.76,4.16c0,.15-.07.3-.1.46h0a5.17,5.17,0,0,0,.21,3l0,.08.08.15.06.1.09.13.09.12.09.11.18.18h0a2.92,2.92,0,0,0,.38.28l.13.08.24.12a4.53,4.53,0,0,0,1.45.36,7.25,7.25,0,0,0,1.51,0l.49-.07h0c.25,0,.5-.1.75-.17l.11,0,.72-.22.07,0c.5-.18,1-.39,1.48-.62s.86-.42,1.29-.64l1.17-.6L32,86.86l.33-.18,1.65-.9.11-.06q.88-.49,1.74-1l.12-.07q.88-.53,1.74-1.08h0l.1-.06.31-.2.88-.59.26-.18,1.12-.79c.84-.62,3.56-3,4.46-1.49.37.62-.16,1.85-.62,2.69v0l-.11.2,0,0-.1.16,0,0-.1.16A41.91,41.91,0,0,1,39.54,89c-2.46,2.69-12.12,13.28-6.3,16.57a4.26,4.26,0,0,0,4.37-.15,14.89,14.89,0,0,0,1.49-1,12.35,12.35,0,0,1,2.61-1.54l.14-.05.19-.06a2.6,2.6,0,0,1,1.68,0c2.16.8,2.55,4.32,4.07,5.8a5.2,5.2,0,0,0,3.45,1.53h0c.17,0,.34,0,.51,0a5.42,5.42,0,0,0,2.37-.74A8.24,8.24,0,0,0,55.87,108a9.37,9.37,0,0,0,2.22-4.33l0-.14c0-.14.05-.28.07-.42l0-.13c0-.17,0-.34.06-.51s0-.17,0-.25,0-.18,0-.27,0-.2,0-.3,0-.14,0-.21,0-.22,0-.33,0,0,0,0c0-.25,0-.49,0-.74,0-.08,0-.15,0-.23s0-.18,0-.28,0-.2,0-.3l0-.22q0-.24,0-.47v-.06c-.07-.65-.19-1.29-.32-1.93-.18-.92-.39-1.83-.54-2.75A20.59,20.59,0,0,1,57,88.29l0-.24v0a4.05,4.05,0,0,1,.28-.94l0-.07.08-.15.09-.15,0,0,.15-.19h0A1.46,1.46,0,0,1,59,86h.19l.06,0,.21.06.08,0h0l.06,0,.3.14.18.1.08.05A8.29,8.29,0,0,1,62.37,89l0,0c.29.45.6.88.93,1.3s.78,1,1.18,1.47l.46.55,1,1.12c.77.87,1.56,1.71,2.37,2.52l.83.8h0l.29.27.2.17,0,0a13.37,13.37,0,0,0,5.57,3.19l.16,0,.22,0,.43.06h.1l.36,0H77a6.16,6.16,0,0,0,2-.42,4.18,4.18,0,0,0,.94-.51l.07,0a4,4,0,0,0,1.22-4A11.44,11.44,0,0,0,80.46,93c-.45-1-2.33-3.28-1.18-4.51.67-.72,3.12-.33,4-.54a5.48,5.48,0,0,0,3.17-1.88A4.65,4.65,0,0,0,87.13,82a7.24,7.24,0,0,0-3.87-4.47,18.08,18.08,0,0,0-4-1.3c-.6-.13-1.2-.23-1.81-.33l-.12,0-1.17-.17-.16,0-.3,0-2-.27h0l-1.18-.19a23.67,23.67,0,0,1-3-.78L69,74.23l-.14-.06L68.6,74,68.46,74l-.28-.16-.11-.07a4,4,0,0,1-.34-.25h0c-1-.82-1.16-1.89.7-2.73.46-.21.92-.4,1.39-.58l.26-.1,1.39-.51.67-.23.68-.23,2.27-.74,1.25-.41.67-.23.86-.3.91-.34.61-.23c.5-.2,1-.41,1.5-.63a18.43,18.43,0,0,0,4.31-2.58l.22-.2.23-.21.26-.27.12-.13a7.35,7.35,0,0,0,.84-1.11l.05-.09c.07-.12.14-.25.2-.38l.08-.17c.06-.12.11-.24.16-.36s.12-.33.16-.49h0c0-.09,0-.19.06-.28s.06-.28.08-.43,0-.11,0-.16a6,6,0,0,0,0-.63s0,0,0-.06,0-.32,0-.48A4.06,4.06,0,0,0,86.7,55.88Z"
                  fill="#f7727e"/>
            <path d="M62,69.28a2,2,0,0,0-1-.55c-.51-.12-1.5.21-1.65-.51a.69.69,0,0,1,0-.09v0s0,0,0-.06v-.13l0-.07v0l0-.08v0l0-.06v0h0v0a2,2,0,0,0,.13-.52s0,0,0,0,0,0,0-.07v-.16l0-.07,0-.06v0a.76.76,0,0,0-.16-.18h0l-.09-.06h0a.88.88,0,0,0-.47-.09h0a1.44,1.44,0,0,0-.38.08h0l-.11,0h0a1.89,1.89,0,0,0-.49.34q-.28.29-.54.6h0l-.06.07-.18.22,0,0-.18.25h0a25.7,25.7,0,0,0-1.48,2.39l-.07.13-.05.09-.13.21h0a1.13,1.13,0,0,1-.43.44h-.14l0,0v-.09h0a1,1,0,0,1,0-.23h0c0-.05,0-.11,0-.17a5.67,5.67,0,0,1,.17-.66l0-.08v0h0l.13-.4,0-.06.15-.4h0l.08-.2,0,0,.06-.12.28-.6a5.43,5.43,0,0,0,.41-1.18v0c0-.06,0-.11,0-.17s0-.06,0-.09,0-.08,0-.12v0c0-.06,0-.13,0-.19v0a2.24,2.24,0,0,0-.11-.62,1.51,1.51,0,0,0-.29-.53l0,0,0,0L55.31,65l0,0-.1-.07h0a1.45,1.45,0,0,0-.74-.19h-.31l-.09,0H54l-.12,0-.16.05a2.53,2.53,0,0,0-1.43,1.57v0l0,.12,0,.11c-.07.3-.14.73-.42.88h0l0,0h-.18c-.38,0-.67-.36-1-.55h0l0,0h0l-.06,0a1.66,1.66,0,0,0-.66-.1,1.11,1.11,0,0,0-.62.25l-.06.05h0a1.3,1.3,0,0,0-.21.28,1.79,1.79,0,0,0-.19.48,1.22,1.22,0,0,0,.06.7v0l0,.09,0,0,0,0a10.66,10.66,0,0,0,1,1.1l.23.26.21.25h0l.09.1.36.41h0l.05.06.14.16,0,0a8.65,8.65,0,0,1,.53.69h0c.09.13.53.73.37.93l0,0h0l-.06,0h0a.83.83,0,0,1-.38-.07h0a2.07,2.07,0,0,1-.4-.2l-.06,0h0l0,0-.13-.09,0,0-.16-.11c-.44-.29-.87-.59-1.34-.84h0l-.16-.08-.11-.05A4.4,4.4,0,0,0,47.7,71h0l-.21,0h0a2.89,2.89,0,0,0-1.57.26l-.05,0,0,0a.88.88,0,0,0-.41.73s0,.06,0,.09v.18a1,1,0,0,0,.14.32l0,.06,0,0,0,.05,0,0,.07.07h0L46,73l0,0,.06.05,0,0a1.05,1.05,0,0,1,.34.64v0s0,0,0,0,0,0,0,0,0,0,0,.06v.31l0,.08v0l0,.09h0a5.5,5.5,0,0,1-.57,1,3.6,3.6,0,0,0-.44,1l0,.11h0a1.29,1.29,0,0,0,.05.76v0l0,0,0,0,0,0,0,0,0,0,0,0h0l.1.07,0,0,.06,0a1.13,1.13,0,0,0,.36.09,1.81,1.81,0,0,0,.38,0l.12,0h0l.19,0h0l.18-.06h0l.37-.15.32-.16.29-.15.43-.22.08,0,.41-.22,0,0,.43-.25,0,0,.43-.27h0l0,0,.08-.05L50.1,76l.07,0,.28-.2c.21-.15.89-.75,1.11-.37.09.16,0,.46-.16.67h0l0,0h0l0,0h0l0,0a10.46,10.46,0,0,1-1.06,1.35c-.61.67-3,3.32-1.57,4.14a1.06,1.06,0,0,0,1.09,0,3.72,3.72,0,0,0,.37-.24A3.08,3.08,0,0,1,50.8,81h0l0,0a.65.65,0,0,1,.42,0c.54.2.64,1.08,1,1.45a1.3,1.3,0,0,0,.86.38h.13a1.35,1.35,0,0,0,.59-.19,2.06,2.06,0,0,0,.43-.34,2.34,2.34,0,0,0,.55-1.08v0l0-.1v0l0-.13v-.26s0-.05,0-.08h0c0-.06,0-.12,0-.19V80h0c0-.16,0-.32-.08-.48s-.1-.46-.14-.69a5.14,5.14,0,0,1-.08-1.45v-.06h0a1,1,0,0,1,.07-.23v0l0,0,0,0h0l0,0h0a.36.36,0,0,1,.33-.12h.16l.07,0,0,0h0a2.07,2.07,0,0,1,.53.63h0l.23.33.29.37.12.14.24.28c.19.22.39.43.59.63l.21.2h0l.07.07,0,0h0a3.34,3.34,0,0,0,1.39.8h.44a1.54,1.54,0,0,0,.51-.11,1,1,0,0,0,.24-.13h0a1,1,0,0,0,.3-1,2.86,2.86,0,0,0-.2-.65c-.11-.26-.58-.82-.29-1.13s.78-.08,1-.14a1.37,1.37,0,0,0,.79-.47,1.16,1.16,0,0,0,.16-1,1.81,1.81,0,0,0-1-1.12,4.52,4.52,0,0,0-1-.33l-.45-.08h0l-.29,0h-.12l-.5-.07h0l-.3,0a5.91,5.91,0,0,1-.75-.19l-.12,0h0l-.08,0,0,0-.07,0,0,0-.09-.06h0c-.25-.2-.29-.47.17-.68l.35-.15.07,0,.35-.13.17-.06.17-.06.57-.18.31-.1.17-.06.21-.07.23-.08L60.2,72l.37-.16a4.6,4.6,0,0,0,1.08-.64l.05,0,.06-.05.07-.07,0,0a1.83,1.83,0,0,0,.21-.28v0l.05-.09,0,0,0-.09,0-.12h0l0-.07,0-.11v0a1.49,1.49,0,0,0,0-.16v0s0-.08,0-.12A1,1,0,0,0,62,69.28Z"
                  fill="#f9c903"/>
            <g opacity="0.7">
                <g opacity="0.6">
                    <path d="M38.79,54.72a26,26,0,0,1,4.9,4.73,25.71,25.71,0,0,1,3.67,5.74,25.73,25.73,0,0,1-4.9-4.73A26,26,0,0,1,38.79,54.72Z"
                          fill="#f7bcc1"/>
                </g>
                <path d="M42.28,52.28a17,17,0,0,1,3.57,4.17,16.75,16.75,0,0,1,2.22,5,16.76,16.76,0,0,1-3.57-4.17A17,17,0,0,1,42.28,52.28Z"
                      fill="#f7bcc1"/>
                <g opacity="0.5">
                    <path d="M47.24,52.42a17,17,0,0,1,2.3,5,16.78,16.78,0,0,1,.77,5.43,16.79,16.79,0,0,1-2.3-5A17,17,0,0,1,47.24,52.42Z"
                          fill="#f7bcc1"/>
                </g>
                <path d="M51.94,48.88a19,19,0,0,1,.62,5.78,18.8,18.8,0,0,1-1,5.73A18.8,18.8,0,0,1,51,54.61,19,19,0,0,1,51.94,48.88Z"
                      fill="#f7bcc1"/>
                <g opacity="0.7">
                    <path d="M57.45,47.6a28.62,28.62,0,0,1-.87,7.1,28.29,28.29,0,0,1-2.42,6.73,28.28,28.28,0,0,1,.87-7.1A28.62,28.62,0,0,1,57.45,47.6Z"
                          fill="#f7bcc1"/>
                </g>
            </g>
            <g opacity="0.7">
                <g opacity="0.6">
                    <path d="M68.39,94.24A26.06,26.06,0,0,1,64,89a25.75,25.75,0,0,1-3-6.11,25.76,25.76,0,0,1,4.36,5.24A26,26,0,0,1,68.39,94.24Z"
                          fill="#f7bcc1"/>
                </g>
                <path d="M71.75,91.61A16.93,16.93,0,0,1,67.64,88a16.73,16.73,0,0,1-2.89-4.66A16.74,16.74,0,0,1,68.86,87,16.93,16.93,0,0,1,71.75,91.61Z"
                      fill="#f7bcc1"/>
                <g opacity="0.5">
                    <path d="M73.09,86.8a16.87,16.87,0,0,1-4.93-2.36,16.67,16.67,0,0,1-4-3.68A16.68,16.68,0,0,1,69,83.12,16.86,16.86,0,0,1,73.09,86.8Z"
                          fill="#f7bcc1"/>
                </g>
                <path d="M77.85,83.34a18.82,18.82,0,0,1-5.73-.77,18.6,18.6,0,0,1-5.3-2.31,18.61,18.61,0,0,1,5.73.77A18.82,18.82,0,0,1,77.85,83.34Z"
                      fill="#f7bcc1"/>
                <g opacity="0.7">
                    <path d="M80.7,78.43a28.31,28.31,0,0,1-7.1.32,28,28,0,0,1-7-1.27,28,28,0,0,1,7.1-.32A28.31,28.31,0,0,1,80.7,78.43Z"
                          fill="#f7bcc1"/>
                </g>
            </g>
            <g opacity="0.7">
                <path d="M54,97a18.13,18.13,0,0,1-.57-5.64,17.92,17.92,0,0,1,1-5.58A17.92,17.92,0,0,1,55,91.38,18.13,18.13,0,0,1,54,97Z"
                      fill="#f7bcc1"/>
                <g opacity="0.5">
                    <path d="M50.11,95.91a18,18,0,0,1,.29-5.65,17.83,17.83,0,0,1,1.85-5.35A17.82,17.82,0,0,1,52,90.57,18,18,0,0,1,50.11,95.91Z"
                          fill="#f7bcc1"/>
                </g>
                <path d="M44.64,96a19,19,0,0,1,1.75-5.54,18.76,18.76,0,0,1,3.19-4.85,18.76,18.76,0,0,1-1.75,5.54A19,19,0,0,1,44.64,96Z"
                      fill="#f7bcc1"/>
                <g opacity="0.7">
                    <path d="M39.09,94.9a28.51,28.51,0,0,1,3.63-6.14,28.19,28.19,0,0,1,4.91-5.18A28.18,28.18,0,0,1,44,89.72,28.52,28.52,0,0,1,39.09,94.9Z"
                          fill="#f7bcc1"/>
                </g>
            </g>
            <g opacity="0.7">
                <g opacity="0.6">
                    <path d="M78.06,66.71a25.85,25.85,0,0,1-6.47,2.07,25.56,25.56,0,0,1-6.77.51,25.56,25.56,0,0,1,6.47-2.07A25.86,25.86,0,0,1,78.06,66.71Z"
                          fill="#f7bcc1"/>
                </g>
                <path d="M76.91,62.59A16.84,16.84,0,0,1,72,65a16.64,16.64,0,0,1-5.38.93,16.64,16.64,0,0,1,4.88-2.45A16.84,16.84,0,0,1,76.91,62.59Z"
                      fill="#f7bcc1"/>
                <g opacity="0.5">
                    <path d="M73,59.52a16.86,16.86,0,0,1-4,3.69A16.68,16.68,0,0,1,64,65.59a16.67,16.67,0,0,1,4-3.69A16.87,16.87,0,0,1,73,59.52Z"
                          fill="#f7bcc1"/>
                </g>
                <path d="M71.61,53.78a18.93,18.93,0,0,1-2.87,5,18.73,18.73,0,0,1-4.13,4.07,18.72,18.72,0,0,1,2.87-5A18.94,18.94,0,0,1,71.61,53.78Z"
                      fill="#f7bcc1"/>
                <g opacity="0.7">
                    <path d="M68.17,49.27A28.57,28.57,0,0,1,65.78,56,28.25,28.25,0,0,1,62,62a28.24,28.24,0,0,1,2.39-6.73A28.58,28.58,0,0,1,68.17,49.27Z"
                          fill="#f7bcc1"/>
                </g>
            </g>
            <g opacity="0.7">
                <g opacity="0.6">
                    <path d="M31.83,85.07a25.94,25.94,0,0,1,5-4.61,25.65,25.65,0,0,1,5.93-3.33,25.64,25.64,0,0,1-5,4.61A26,26,0,0,1,31.83,85.07Z"
                          fill="#f7bcc1"/>
                </g>
                <path d="M29.63,81.41A16.86,16.86,0,0,1,34,78.1a16.67,16.67,0,0,1,5.12-1.91,16.66,16.66,0,0,1-4.35,3.31A16.87,16.87,0,0,1,29.63,81.41Z"
                      fill="#f7bcc1"/>
                <g opacity="0.5">
                    <path d="M28.47,76.8a22.21,22.21,0,0,1,6-2,22,22,0,0,1,6.27-.4,22,22,0,0,1-6,2A22.21,22.21,0,0,1,28.47,76.8Z"
                          fill="#f7bcc1"/>
                </g>
                <path d="M26.88,71.49a18.81,18.81,0,0,1,5.77-.24,18.59,18.59,0,0,1,5.62,1.34,18.59,18.59,0,0,1-5.77.24A18.81,18.81,0,0,1,26.88,71.49Z"
                      fill="#f7bcc1"/>
                <g opacity="0.7">
                    <path d="M26,65.87A39.13,39.13,0,0,1,34,68.09a38.67,38.67,0,0,1,7.5,3.7,38.68,38.68,0,0,1-8.07-2.21A39.12,39.12,0,0,1,26,65.87Z"
                          fill="#f7bcc1"/>
                </g>
            </g>
            <path d="M64.06,51s2.6-.44,4-.83l.1.12a1.07,1.07,0,0,0,1.52-.1,1.09,1.09,0,0,0,0-1.53,1.07,1.07,0,0,0-1.52.1,1.13,1.13,0,0,0-.26.48l-2.3.19Z"
                  fill="#ffdc47"/>
            <path d="M61,54.63l5.07-.76a1.07,1.07,0,0,0,1.42-.18,1.09,1.09,0,0,0,0-1.53,1.07,1.07,0,0,0-1.52.1,1.11,1.11,0,0,0-.16.24,19.28,19.28,0,0,1-3.34.17Z"
                  fill="#ffdc47"/>
            <path d="M64,48.1,63.28,46a1.16,1.16,0,0,0,.24-.38,1.09,1.09,0,0,0-.58-1.42,1.07,1.07,0,0,0-1.38.64,1.09,1.09,0,0,0,.58,1.42l.11,0,.41,2.86Z"
                  fill="#ffdc47"/>
            <path d="M61.11,50.66l-.93-2a1.1,1.1,0,0,0,.37-.54,1.13,1.13,0,0,0,.06-.37,1.09,1.09,0,0,0-.76-1,1,1,0,0,0-.31,0,1.08,1.08,0,0,0-1,1.12,1.1,1.1,0,0,0,.67,1l.6,3.44Z"
                  fill="#ffdc47"/>
            <path d="M58.77,54l-1.52-2.73a1.14,1.14,0,0,0,.18-.64,1.05,1.05,0,1,0-2.1,0,1.09,1.09,0,0,0,.81,1.06l1.43,4.05Z"
                  fill="#ffdc47"/>
            <path d="M59.13,58.25l4-1.35a1.07,1.07,0,0,0,1.44-.16,1.09,1.09,0,0,0,0-1.53,1.07,1.07,0,0,0-1.52.1,1.12,1.12,0,0,0-.29.68l-.3.06-.28,0h0c-.85.1-1.86.07-2,.11Z"
                  fill="#ffdc47"/>
            <path d="M67.26,46.59a8.33,8.33,0,0,0-3.9,1.77c-.16.2-3.54,3.41-4,4.45a7.29,7.29,0,0,1-.73,1c-.19.32-1.55,2.45-1.73,2.78q-.78,1.41-1.44,2.89h0q-.24.53-.46,1.07l-.08.2-.35.88-.11.28-.3.83L54,63q-.19.55-.37,1.1c-.37,1.13-.8,2.31-1.18,3.51-.07.23-.15.47-.21.71a13.71,13.71,0,0,0-.6,3.68,3.36,3.36,0,0,0,1.31,2.91,2.15,2.15,0,0,0,2.62-.18l0,0c.94-1,.71-2.69.64-4a25.85,25.85,0,0,1,1.32-8.11c.42-1.49,2.35-5.84,3-7.27h0l.2-.35c.08-.13,5.08-5.74,5.17-5.9.78-.52,2.29-1.39,2.3-2.06S67.74,46.49,67.26,46.59Z"
                  fill="#a86a7d"/>
        </g>
    </g>
</svg>