<?xml version="1.0" ?><svg id="Filled_Outline_1_" style="enable-background:new 0 0 64 64;" version="1.1" viewBox="0 0 64 64" xml:space="preserve" xmlns="http://www.w3.org/2000/svg" xmlns:xlink="http://www.w3.org/1999/xlink"><title/><desc/><style type="text/css">
	.st0{fill:#18C29C;}
	.st1{fill:#18A596;}
	.st2{fill:#FFBB2C;}
	.st3{fill:#FFD18B;}
	.st4{fill:#272A56;}
	.st5{fill:#FF7BAC;}
	.st6{fill:#FD58A1;}
	.st7{fill:none;}
	.st8{fill:#FFD8B1;}
	.st9{fill:#FFFDE9;}
	.st10{fill:#FFCAA9;}
	.st11{fill:#8C6239;}
	.st12{fill:#ECECD8;}
	.st13{fill:#96C6EE;}
	.st14{fill:#29ABE2;}
	.st15{fill:#A67C52;}
	.st16{fill:#CCCCCC;}
</style><g><g><path class="st5" d="M39,16L39,16L39,16c1.105,1.105,1.105,2.895,0,4l0,0c-1.105,1.105-2.895,1.105-4,0l0,0v0c0,1.657-1.343,3-3,3    h0c-1.657,0-3-1.343-3-3v0l0,0c-1.105,1.105-2.895,1.105-4,0l0,0c-1.105-1.105-1.105-2.895,0-4l0,0h0c-1.657,0-3-1.343-3-3v0    c0-1.657,1.343-3,3-3h0l0,0c-1.105-1.105-1.105-2.895,0-4l0,0c1.105-1.105,2.895-1.105,4,0l0,0v0c0-1.657,1.343-3,3-3h0    c1.657,0,3,1.343,3,3v0l0,0c1.105-1.105,2.895-1.105,4,0l0,0c1.105,1.105,1.105,2.895,0,4l0,0h0c1.657,0,3,1.343,3,3v0    C42,14.657,40.657,16,39,16z"/><path class="st6" d="M25,16c5.527,0,10-4.473,10-10l0,0c1.105-1.105,2.895-1.105,4,0l0,0c1.105,1.105,1.105,2.895,0,4l0,0h0    c1.657,0,3,1.343,3,3v0c0,1.657-1.343,3-3,3h0l0,0c1.105,1.105,1.105,2.895,0,4l0,0c-1.105,1.105-2.895,1.105-4,0l0,0v0    c0,1.657-1.343,3-3,3h0c-1.657,0-3-1.343-3-3v0l0,0c-1.105,1.105-2.895,1.105-4,0l0,0C23.895,18.895,23.895,17.105,25,16L25,16z"/><path class="st9" d="M32,47L32,47c-3.314,0-6,2.686-6,6v8h12v-8C38,49.686,35.314,47,32,47z"/><path class="st12" d="M26,58c3.316,0,6-4.92,6-11h0c3.314,0,6,2.686,6,6v8H26V58z"/><path class="st9" d="M32,47L32,47c-6.627,0-12-5.373-12-12v-6h24v6C44,41.627,38.627,47,32,47z"/><path class="st12" d="M32,47c3.869,0,7-8.051,7-18h5v6C44,41.627,38.627,47,32,47L32,47z"/><path class="st5" d="M19,43.954v6.092c0,1.415,1.429,2.382,2.743,1.857L29,49v-4l-7.257-2.903C20.429,41.572,19,42.539,19,43.954z    "/><path class="st5" d="M45,43.954v6.092c0,1.415-1.429,2.382-2.743,1.857L35,49v-4l7.257-2.903C43.571,41.572,45,42.539,45,43.954z"/><path class="st13" d="M27,25L27,25L27,25c1.105,1.105,1.105,2.895,0,4l0,0c-1.105,1.105-2.895,1.105-4,0l0,0v0    c0,1.657-1.343,3-3,3h0c-1.657,0-3-1.343-3-3v0l0,0c-1.105,1.105-2.895,1.105-4,0l0,0c-1.105-1.105-1.105-2.895,0-4l0,0h0    c-1.657,0-3-1.343-3-3v0c0-1.657,1.343-3,3-3h0l0,0c-1.105-1.105-1.105-2.895,0-4l0,0c1.105-1.105,2.895-1.105,4,0l0,0v0    c0-1.657,1.343-3,3-3h0c1.657,0,3,1.343,3,3v0l0,0c1.105-1.105,2.895-1.105,4,0l0,0c1.105,1.105,1.105,2.895,0,4l0,0h0    c1.657,0,3,1.343,3,3v0C30,23.657,28.657,25,27,25z"/><path class="st13" d="M51,25L51,25L51,25c1.105,1.105,1.105,2.895,0,4l0,0c-1.105,1.105-2.895,1.105-4,0l0,0v0    c0,1.657-1.343,3-3,3h0c-1.657,0-3-1.343-3-3v0l0,0c-1.105,1.105-2.895,1.105-4,0l0,0c-1.105-1.105-1.105-2.895,0-4l0,0h0    c-1.657,0-3-1.343-3-3v0c0-1.657,1.343-3,3-3h0l0,0c-1.105-1.105-1.105-2.895,0-4l0,0c1.105-1.105,2.895-1.105,4,0l0,0v0    c0-1.657,1.343-3,3-3h0c1.657,0,3,1.343,3,3v0l0,0c1.105-1.105,2.895-1.105,4,0l0,0c1.105,1.105,1.105,2.895,0,4l0,0h0    c1.657,0,3,1.343,3,3v0C54,23.657,52.657,25,51,25z"/><circle class="st3" cx="32" cy="13" r="2"/><path class="st6" d="M23.923,45.549L29,47l-5.077,1.451C22.959,48.726,22,48.002,22,47v0C22,45.998,22.959,45.274,23.923,45.549z"/><path class="st6" d="M40.077,45.549L35,47l5.077,1.451C41.041,48.726,42,48.002,42,47v0C42,45.998,41.041,45.274,40.077,45.549z"/><circle class="st5" cx="32" cy="47" r="4"/><path class="st6" d="M32,43c-2.21,0-4,1.79-4,4c0,2.21,1.79,4,4,4s4-1.79,4-4C36,44.79,34.21,43,32,43z M31,48c-1.1,0-2-0.9-2-2    c0-1.1,0.9-2,2-2s2,0.9,2,2C33,47.1,32.1,48,31,48z"/><path class="st14" d="M13,25c5.527,0,10-4.473,10-10l0,0c1.105-1.105,2.895-1.105,4,0l0,0c1.105,1.105,1.105,2.895,0,4l0,0h0    c1.657,0,3,1.343,3,3v0c0,1.657-1.343,3-3,3h0l0,0c1.105,1.105,1.105,2.895,0,4l0,0c-1.105,1.105-2.895,1.105-4,0l0,0v0    c0,1.657-1.343,3-3,3h0c-1.657,0-3-1.343-3-3v0l0,0c-1.105,1.105-2.895,1.105-4,0l0,0C11.895,27.895,11.895,26.105,13,25L13,25z"/><path class="st14" d="M37,25c5.527,0,10-4.473,10-10l0,0c1.105-1.105,2.895-1.105,4,0l0,0c1.105,1.105,1.105,2.895,0,4l0,0h0    c1.657,0,3,1.343,3,3v0c0,1.657-1.343,3-3,3h0l0,0c1.105,1.105,1.105,2.895,0,4l0,0c-1.105,1.105-2.895,1.105-4,0l0,0v0    c0,1.657-1.343,3-3,3h0c-1.657,0-3-1.343-3-3v0l0,0c-1.105,1.105-2.895,1.105-4,0l0,0C35.895,27.895,35.895,26.105,37,25L37,25z"/><circle class="st3" cx="20" cy="22" r="2"/><circle class="st3" cx="44" cy="22" r="2"/><path class="st5" d="M39,32L39,32L39,32c1.105,1.105,1.105,2.895,0,4l0,0c-1.105,1.105-2.895,1.105-4,0l0,0v0c0,1.657-1.343,3-3,3    h0c-1.657,0-3-1.343-3-3v0l0,0c-1.105,1.105-2.895,1.105-4,0l0,0c-1.105-1.105-1.105-2.895,0-4l0,0h0c-1.657,0-3-1.343-3-3v0    c0-1.657,1.343-3,3-3h0l0,0c-1.105-1.105-1.105-2.895,0-4l0,0c1.105-1.105,2.895-1.105,4,0l0,0v0c0-1.657,1.343-3,3-3h0    c1.657,0,3,1.343,3,3v0l0,0c1.105-1.105,2.895-1.105,4,0l0,0c1.105,1.105,1.105,2.895,0,4l0,0h0c1.657,0,3,1.343,3,3v0    C42,30.657,40.657,32,39,32z"/><path class="st6" d="M25,32c5.527,0,10-4.473,10-10l0,0c1.105-1.105,2.895-1.105,4,0l0,0c1.105,1.105,1.105,2.895,0,4l0,0h0    c1.657,0,3,1.343,3,3v0c0,1.657-1.343,3-3,3h0l0,0c1.105,1.105,1.105,2.895,0,4l0,0c-1.105,1.105-2.895,1.105-4,0l0,0v0    c0,1.657-1.343,3-3,3h0c-1.657,0-3-1.343-3-3v0l0,0c-1.105,1.105-2.895,1.105-4,0l0,0C23.895,34.895,23.895,33.105,25,32L25,32z"/><circle class="st3" cx="32" cy="29" r="2"/></g><g><path class="st4" d="M23,22c0-1.654-1.346-3-3-3s-3,1.346-3,3s1.346,3,3,3S23,23.654,23,22z M19,22c0-0.552,0.448-1,1-1    s1,0.448,1,1s-0.448,1-1,1S19,22.552,19,22z"/><path class="st4" d="M55,22c0-1.641-0.993-3.055-2.41-3.67c0.501-1.359,0.207-2.947-0.883-4.037s-2.678-1.386-4.037-0.883    C47.055,11.993,45.641,11,44,11c-0.493,0-0.962,0.099-1.399,0.263c-0.417-0.861-1.132-1.551-2.012-1.933    c0.501-1.359,0.207-2.947-0.883-4.037S37.029,3.907,35.67,4.41C35.055,2.993,33.641,2,32,2s-3.055,0.993-3.67,2.41    c-1.361-0.503-2.948-0.207-4.037,0.883c-1.09,1.09-1.384,2.678-0.883,4.037c-0.88,0.382-1.595,1.072-2.012,1.933    C20.962,11.099,20.493,11,20,11c-1.641,0-3.055,0.993-3.67,2.41c-1.361-0.503-2.948-0.207-4.037,0.883    c-1.09,1.09-1.384,2.678-0.883,4.037C9.993,18.945,9,20.359,9,22s0.993,3.055,2.41,3.67c-0.501,1.359-0.207,2.947,0.883,4.037    c1.089,1.089,2.676,1.384,4.037,0.883c0.485,1.118,1.471,1.963,2.67,2.274V35c0,2.134,0.511,4.175,1.479,6.017    c-0.408,0.073-0.806,0.213-1.16,0.453C18.492,42.028,18,42.957,18,43.954v6.092c0,0.997,0.492,1.926,1.318,2.484    c0.825,0.559,1.87,0.672,2.796,0.302l3.039-1.216C25.061,52.071,25,52.532,25,53v8c0,0.553,0.447,1,1,1h12c0.553,0,1-0.447,1-1v-8    c0-0.468-0.061-0.929-0.153-1.384l3.039,1.216c0.926,0.37,1.971,0.257,2.796-0.302C45.508,51.972,46,51.043,46,50.046v-6.092    c0-0.997-0.492-1.926-1.318-2.484c-0.354-0.24-0.752-0.38-1.16-0.453C44.489,39.175,45,37.134,45,35v-2.136    c1.199-0.311,2.185-1.156,2.67-2.274c1.359,0.501,2.947,0.206,4.037-0.883c1.09-1.09,1.384-2.678,0.883-4.037    C54.007,25.055,55,23.641,55,22z M25,11c0.404,0,0.77-0.243,0.924-0.617c0.155-0.374,0.069-0.804-0.217-1.09    c-0.713-0.713-0.713-1.873,0-2.586s1.873-0.713,2.586,0c0.287,0.287,0.717,0.374,1.09,0.217C29.757,6.77,30,6.404,30,6    c0-1.103,0.897-2,2-2s2,0.897,2,2c0,0.404,0.243,0.77,0.617,0.924c0.374,0.156,0.804,0.07,1.09-0.217    c0.713-0.713,1.873-0.713,2.586,0s0.713,1.873,0,2.586c-0.286,0.286-0.372,0.716-0.217,1.09C38.23,10.757,38.596,11,39,11    c0.914,0,1.678,0.62,1.916,1.458c-0.237,0.287-0.436,0.606-0.586,0.952c-1.361-0.503-2.948-0.207-4.037,0.883    c-1.09,1.09-1.384,2.678-0.883,4.037c-0.327,0.142-0.625,0.341-0.905,0.566C33.818,18.34,32.95,18,32,18s-1.818,0.34-2.505,0.896    c-0.28-0.225-0.578-0.424-0.905-0.566c0.501-1.359,0.207-2.947-0.883-4.037s-2.678-1.386-4.037-0.883    c-0.15-0.346-0.349-0.665-0.586-0.952C23.322,11.62,24.086,11,25,11z M38.076,26.383C38.23,26.757,38.596,27,39,27    c1.103,0,2,0.897,2,2s-0.897,2-2,2c-0.404,0-0.77,0.243-0.924,0.617c-0.155,0.374-0.069,0.804,0.217,1.09    c0.713,0.713,0.713,1.873,0,2.586s-1.873,0.713-2.586,0c-0.286-0.286-0.715-0.372-1.09-0.217C34.243,35.23,34,35.596,34,36    c0,1.103-0.897,2-2,2s-2-0.897-2-2c0-0.404-0.243-0.77-0.617-0.924C29.259,35.024,29.129,35,29,35    c-0.26,0-0.516,0.102-0.707,0.293c-0.713,0.713-1.873,0.713-2.586,0s-0.713-1.873,0-2.586c0.286-0.286,0.372-0.716,0.217-1.09    C25.77,31.243,25.404,31,25,31c-1.103,0-2-0.897-2-2s0.897-2,2-2c0.404,0,0.77-0.243,0.924-0.617    c0.155-0.374,0.069-0.804-0.217-1.09c-0.713-0.713-0.713-1.873,0-2.586s1.873-0.713,2.586,0c0.287,0.287,0.717,0.374,1.09,0.217    C29.757,22.77,30,22.404,30,22c0-1.103,0.897-2,2-2s2,0.897,2,2c0,0.404,0.243,0.77,0.617,0.924    c0.374,0.156,0.804,0.07,1.09-0.217c0.713-0.713,1.873-0.713,2.586,0s0.713,1.873,0,2.586    C38.007,25.579,37.921,26.009,38.076,26.383z M41.507,32.109c0.441,0.353,0.948,0.608,1.493,0.749V35    c0,2.416-0.769,4.693-2.215,6.608l-5.101,2.041C34.769,42.643,33.464,42,32,42s-2.769,0.643-3.685,1.649l-5.101-2.041    C21.769,39.693,21,37.416,21,35v-2.142c0.545-0.142,1.051-0.396,1.493-0.749c0.279,0.225,0.585,0.417,0.917,0.561    c-0.501,1.359-0.207,2.947,0.883,4.037c1.089,1.089,2.676,1.385,4.037,0.883C28.945,39.007,30.359,40,32,40s3.055-0.993,3.67-2.41    c1.359,0.502,2.947,0.206,4.037-0.883c1.09-1.09,1.384-2.678,0.883-4.037C40.922,32.526,41.229,32.334,41.507,32.109z M29,47    c0-1.654,1.346-3,3-3s3,1.346,3,3s-1.346,3-3,3S29,48.654,29,47z M18,29c0-0.404-0.243-0.77-0.617-0.924    c-0.374-0.156-0.804-0.069-1.09,0.217c-0.713,0.713-1.873,0.713-2.586,0s-0.713-1.873,0-2.586c0.286-0.286,0.372-0.716,0.217-1.09    C13.77,24.243,13.404,24,13,24c-1.103,0-2-0.897-2-2s0.897-2,2-2c0.404,0,0.77-0.243,0.924-0.617    c0.155-0.374,0.069-0.804-0.217-1.09c-0.713-0.713-0.713-1.873,0-2.586s1.873-0.713,2.586,0c0.287,0.286,0.717,0.373,1.09,0.217    C17.757,15.77,18,15.404,18,15c0-1.103,0.897-2,2-2s2,0.897,2,2c0,0.404,0.243,0.77,0.617,0.924    c0.374,0.156,0.803,0.069,1.09-0.217c0.713-0.713,1.873-0.713,2.586,0s0.713,1.873,0,2.586c-0.286,0.286-0.372,0.716-0.217,1.09    C26.23,19.757,26.596,20,27,20c0.402,0,0.788,0.127,1.116,0.348c-1.311-0.399-2.79-0.089-3.823,0.945    c-1.09,1.09-1.384,2.678-0.883,4.037C21.993,25.945,21,27.359,21,29c0,0.533,0.114,1.037,0.304,1.502    C20.942,30.816,20.483,31,20,31C18.897,31,18,30.103,18,29z M21.372,50.975c-0.313,0.125-0.653,0.089-0.933-0.101    C20.16,50.686,20,50.383,20,50.046v-6.092c0-0.337,0.16-0.64,0.439-0.828c0.279-0.189,0.619-0.226,0.933-0.101l5.917,2.367    C27.115,45.9,27,46.435,27,47s0.115,1.1,0.289,1.607L21.372,50.975z M37,53v7H27v-7c0-0.828,0.212-1.64,0.601-2.363l0.714-0.286    C29.231,51.357,30.536,52,32,52s2.769-0.643,3.685-1.649l0.714,0.286C36.788,51.36,37,52.172,37,53z M44,43.954v6.092    c0,0.337-0.16,0.64-0.439,0.828c-0.279,0.189-0.619,0.226-0.933,0.101l-5.917-2.367C36.885,48.1,37,47.565,37,47    s-0.115-1.1-0.289-1.607l5.917-2.367c0.313-0.125,0.653-0.089,0.933,0.101C43.84,43.314,44,43.617,44,43.954z M51,24    c-0.404,0-0.77,0.243-0.924,0.617c-0.155,0.374-0.069,0.804,0.217,1.09c0.713,0.713,0.713,1.873,0,2.586s-1.873,0.713-2.586,0    c-0.285-0.286-0.715-0.373-1.09-0.217C46.243,28.23,46,28.596,46,29c0,1.103-0.897,2-2,2c-0.483,0-0.942-0.184-1.304-0.498    C42.886,30.037,43,29.533,43,29c0-1.641-0.993-3.055-2.41-3.67c0.501-1.359,0.207-2.947-0.883-4.037    c-1.034-1.034-2.513-1.344-3.823-0.945C36.212,20.127,36.598,20,37,20c0.404,0,0.77-0.243,0.924-0.617    c0.155-0.374,0.069-0.804-0.217-1.09c-0.713-0.713-0.713-1.873,0-2.586s1.873-0.713,2.586,0c0.287,0.286,0.716,0.373,1.09,0.217    C41.757,15.77,42,15.404,42,15c0-1.103,0.897-2,2-2s2,0.897,2,2c0,0.404,0.243,0.77,0.617,0.924    c0.374,0.156,0.804,0.069,1.09-0.217c0.713-0.713,1.873-0.713,2.586,0s0.713,1.873,0,2.586c-0.286,0.286-0.372,0.716-0.217,1.09    C50.23,19.757,50.596,20,51,20c1.103,0,2,0.897,2,2S52.103,24,51,24z"/><path class="st4" d="M44,19c-1.654,0-3,1.346-3,3s1.346,3,3,3s3-1.346,3-3S45.654,19,44,19z M44,23c-0.552,0-1-0.448-1-1    s0.448-1,1-1s1,0.448,1,1S44.552,23,44,23z"/><path class="st4" d="M32,26c-1.654,0-3,1.346-3,3s1.346,3,3,3s3-1.346,3-3S33.654,26,32,26z M32,30c-0.552,0-1-0.448-1-1    s0.448-1,1-1s1,0.448,1,1S32.552,30,32,30z"/><path class="st4" d="M32,16c1.654,0,3-1.346,3-3s-1.346-3-3-3s-3,1.346-3,3S30.346,16,32,16z M32,12c0.552,0,1,0.448,1,1    s-0.448,1-1,1s-1-0.448-1-1S31.448,12,32,12z"/></g></g></svg>